<svg width="255" height="255" viewBox="0 0 255 255" fill="none" xmlns="http://www.w3.org/2000/svg">
<rect x="0.5" y="0.5" width="254" height="254" rx="11.5" stroke="url(#paint0_linear)"/>
<path d="M36.8446 176.364H34.6486C34.4566 177.684 33.6526 178.416 31.7446 178.416C29.7886 178.416 28.6726 177.624 28.6726 175.788V175.764C28.6726 173.808 29.8486 173.04 31.8286 173.04C33.4966 173.04 34.4206 173.688 34.6246 174.828H36.7966C36.4726 173.184 35.5606 172.14 34.1566 171.612C33.4606 171.36 32.7046 171.228 31.8166 171.228C29.7766 171.228 28.1686 171.948 27.2686 173.304C26.8126 173.976 26.5966 174.792 26.5966 175.752V175.812C26.5966 177.9 27.4606 179.172 28.9726 179.784C29.7286 180.084 30.6046 180.24 31.6126 180.24C33.7966 180.24 35.2246 179.58 36.0406 178.428C36.4606 177.852 36.7126 177.168 36.8446 176.364ZM40.0831 177.24H42.4951C43.5871 177.24 44.1631 177.408 44.4391 177.888C44.5711 178.128 44.6311 178.464 44.6311 178.896V179.424C44.6311 179.652 44.6671 179.916 44.8711 180H46.9711C46.7911 179.892 46.7671 179.652 46.7671 179.448V178.884C46.7671 177.36 46.2151 176.688 44.9551 176.412C46.2391 176.088 46.8271 175.428 46.8271 174.144C46.8271 172.26 45.6031 171.444 42.5791 171.444H38.0791V180H40.0831V177.24ZM40.0831 173.148H42.5551C43.5631 173.148 44.1991 173.22 44.5231 173.544C44.6671 173.7 44.7511 173.94 44.7511 174.264V174.42C44.7511 175.092 44.3551 175.368 43.6591 175.464C43.3231 175.5 42.9391 175.524 42.4831 175.524H40.0831V173.148ZM56.7922 180V178.248H50.3002V176.556H55.5802V174.864H50.3002V173.136H56.5402V171.444H48.3682V180H56.7922ZM65.2515 178.14L66.1635 180H68.3115L63.9075 171.444H61.7835L57.4515 180H59.6235L60.5115 178.14H65.2515ZM62.8395 173.256L64.4355 176.508H61.2915L62.8395 173.256ZM71.9131 173.16H75.1291V171.444H66.7771V173.16H69.8491V180H71.9131V173.16ZM84.9172 180V178.248H78.4252V176.556H83.7052V174.864H78.4252V173.136H84.6652V171.444H76.4932V180H84.9172ZM91.3161 174.012L91.4001 174.132L96.6561 180H98.5881V171.444H96.6561V177.36L96.5841 177.252L91.3881 171.444H89.3721V180H91.3161V174.012ZM102.473 176.928H108.257V175.14H102.473V173.22H108.425V171.444H100.493V180H102.473V176.928ZM114.605 173.16H117.821V171.444H109.469V173.16H112.541V180H114.605V173.16ZM132.059 176.364H129.863C129.671 177.684 128.867 178.416 126.959 178.416C125.003 178.416 123.887 177.624 123.887 175.788V175.764C123.887 173.808 125.063 173.04 127.043 173.04C128.711 173.04 129.635 173.688 129.839 174.828H132.011C131.687 173.184 130.775 172.14 129.371 171.612C128.675 171.36 127.919 171.228 127.031 171.228C124.991 171.228 123.383 171.948 122.483 173.304C122.027 173.976 121.811 174.792 121.811 175.752V175.812C121.811 177.9 122.675 179.172 124.187 179.784C124.943 180.084 125.819 180.24 126.827 180.24C129.011 180.24 130.439 179.58 131.255 178.428C131.675 177.852 131.927 177.168 132.059 176.364ZM138.279 180.24C140.295 180.24 141.879 179.604 142.743 178.296C143.199 177.636 143.403 176.82 143.403 175.824V175.74C143.403 173.796 142.467 172.452 140.907 171.756C140.115 171.408 139.263 171.228 138.267 171.228C136.287 171.228 134.715 171.948 133.827 173.304C133.395 173.976 133.167 174.792 133.167 175.752V175.812C133.167 177.876 134.043 179.148 135.591 179.772C136.359 180.096 137.247 180.24 138.279 180.24ZM138.267 178.416C136.371 178.416 135.243 177.6 135.243 175.8V175.788C135.243 173.832 136.371 173.04 138.279 173.04C139.551 173.04 140.451 173.376 140.955 174.18C141.207 174.6 141.327 175.128 141.327 175.8V175.812C141.327 177.096 140.811 177.84 139.899 178.164C139.443 178.344 138.915 178.416 138.267 178.416ZM144.907 180H152.623V178.104H146.947V171.444H144.907V180ZM154.048 180H161.764V178.104H156.088V171.444H154.048V180ZM171.613 180V178.248H165.121V176.556H170.401V174.864H165.121V173.136H171.361V171.444H163.189V180H171.613ZM182.485 176.364H180.289C180.097 177.684 179.293 178.416 177.385 178.416C175.429 178.416 174.313 177.624 174.313 175.788V175.764C174.313 173.808 175.489 173.04 177.469 173.04C179.137 173.04 180.061 173.688 180.265 174.828H182.437C182.113 173.184 181.201 172.14 179.797 171.612C179.101 171.36 178.345 171.228 177.457 171.228C175.417 171.228 173.809 171.948 172.909 173.304C172.453 173.976 172.237 174.792 172.237 175.752V175.812C172.237 177.9 173.101 179.172 174.613 179.784C175.369 180.084 176.245 180.24 177.253 180.24C179.437 180.24 180.865 179.58 181.681 178.428C182.101 177.852 182.353 177.168 182.485 176.364ZM188.023 173.16H191.239V171.444H182.887V173.16H185.959V180H188.023V173.16ZM192.394 180H198.958V178.128H196.63V173.232H198.958V171.444H192.394V173.232H194.722V178.128H192.394V180ZM200.489 180H205.313C207.209 180 208.493 179.712 209.165 178.992C209.501 178.644 209.669 178.14 209.669 177.516V177.468C209.669 176.256 209.069 175.776 207.689 175.584C208.913 175.356 209.453 174.864 209.453 173.76V173.688C209.453 171.972 208.073 171.444 205.229 171.444H200.489V180ZM202.445 173.028H205.349C206.381 173.028 206.969 173.076 207.257 173.316C207.401 173.448 207.473 173.64 207.473 173.916V173.964C207.473 174.48 207.113 174.696 206.501 174.78C206.177 174.816 205.841 174.828 205.421 174.828H202.445V173.028ZM202.445 176.388H205.205C206.465 176.388 207.125 176.448 207.401 176.724C207.545 176.856 207.617 177.06 207.617 177.336V177.384C207.617 177.888 207.401 178.14 206.657 178.236C206.285 178.296 205.769 178.32 205.061 178.32H202.445V176.388ZM210.931 180H218.647V178.104H212.971V171.444H210.931V180ZM228.495 180V178.248H222.003V176.556H227.283V174.864H222.003V173.136H228.243V171.444H220.071V180H228.495Z" fill="black"/>
<path fill-rule="evenodd" clip-rule="evenodd" d="M129.286 77.5C129.286 76.6716 128.614 76 127.786 76C126.957 76 126.286 76.6716 126.286 77.5V104.714H99.5C98.6716 104.714 98 105.386 98 106.214C98 107.043 98.6716 107.714 99.5 107.714H126.286L126.286 134.5C126.286 135.328 126.957 136 127.786 136C128.614 136 129.286 135.328 129.286 134.5V107.714L156.5 107.714C157.328 107.714 158 107.043 158 106.214C158 105.386 157.328 104.714 156.5 104.714L129.286 104.714V77.5Z" fill="url(#paint1_linear)"/>
<defs>
<linearGradient id="paint0_linear" x1="33.9216" y1="45.4885" x2="210.648" y2="222.215" gradientUnits="userSpaceOnUse">
<stop stop-color="#BCEB00"/>
<stop offset="1" stop-color="#00EAEA"/>
</linearGradient>
<linearGradient id="paint1_linear" x1="105.982" y1="86.7032" x2="147.564" y2="128.286" gradientUnits="userSpaceOnUse">
<stop stop-color="#BCEB00"/>
<stop offset="1" stop-color="#00EAEA"/>
</linearGradient>
</defs>
</svg>
