<svg width="255" height="386" viewBox="0 0 255 386" fill="none" xmlns="http://www.w3.org/2000/svg">
<rect width="255" height="378" rx="12" fill="white"/>
<rect x="0.5" y="0.5" width="254" height="377" rx="11.5" stroke="black" stroke-opacity="0.1"/>
<path d="M79.204 289.336C82.1 289.336 83.892 288.632 84.756 287.432C85.204 286.824 85.412 286.136 85.412 285.32C85.412 283.688 84.628 282.776 82.98 282.28C82.148 282.04 81.14 281.88 79.876 281.816C78.404 281.736 77.54 281.624 77.076 281.496C76.628 281.368 76.5 281.176 76.5 280.904C76.5 280.392 76.98 280.024 78.484 280.024C80.068 280.024 81.028 280.296 81.268 281.256H85.348C84.66 278.296 82.516 277.192 78.596 277.192C74.74 277.192 72.612 278.68 72.612 281.128C72.612 283.48 74.244 284.36 77.716 284.6C79.812 284.728 80.836 284.824 81.236 285.064C81.428 285.176 81.54 285.352 81.54 285.592C81.54 286.2 80.916 286.456 79.46 286.456C77.892 286.456 76.74 286.136 76.468 285.08H72.196C72.532 286.968 73.444 288.232 75.38 288.856C76.372 289.176 77.62 289.336 79.204 289.336ZM88.9292 279.096C90.4492 279.096 91.1852 278.616 91.1852 277.416C91.1852 276.168 90.3852 275.736 88.9292 275.736C87.4732 275.736 86.6892 276.168 86.6892 277.416C86.6892 278.664 87.3292 279.096 88.9292 279.096ZM86.9292 279.752V289H90.8812V279.752C90.7372 279.88 90.2252 279.976 89.6652 280.04C89.3932 280.056 89.1532 280.072 88.9132 280.072C88.4812 280.072 87.8572 280.008 87.3932 279.928C87.1532 279.88 86.9932 279.816 86.9292 279.752ZM96.6259 289V285C96.6259 283.352 97.1859 282.632 98.6259 282.632C100.018 282.632 100.466 283.336 100.466 284.792V289H104.306V283.688C104.306 281 102.85 279.448 100.162 279.448C98.2099 279.448 96.9939 280.392 96.4179 281.8L96.0499 279.72H92.7539V289H96.6259ZM118.237 289.512V289.464C118.237 287.432 116.925 286.632 113.501 286.632H110.573C108.877 286.632 108.461 286.568 108.461 286.264C108.461 286.024 108.605 285.896 109.229 285.832C109.549 285.816 109.997 285.784 110.621 285.784H112.109C116.189 285.784 117.773 284.824 117.773 282.744C117.773 281.096 116.813 280.248 114.685 279.976C114.125 279.864 113.293 279.832 112.301 279.784L113.517 279.832C115.277 279.832 116.349 279.832 116.973 279.576C117.613 279.336 117.821 278.808 117.821 277.752V277.512H113.789V278.024C113.789 278.888 113.597 279.272 113.085 279.416C112.829 279.496 112.493 279.528 112.045 279.528H111.533C107.613 279.528 105.853 280.728 105.853 282.728C105.853 284.264 106.717 284.968 108.557 285.272C106.413 285.464 105.597 286.2 105.597 287.336C105.597 288.584 106.541 289.112 108.701 289.192C106.365 289.336 105.517 289.976 105.517 291.032C105.517 291.896 106.109 292.472 107.709 292.776C108.525 292.92 109.629 293 111.037 293H111.885C116.381 293 118.237 291.848 118.237 289.512ZM111.837 283.608C110.141 283.608 109.533 283.448 109.533 282.808C109.533 282.136 110.093 281.896 111.677 281.88H111.933C113.677 281.88 114.237 282.136 114.237 282.776C114.237 283.384 113.581 283.608 111.837 283.608ZM112.301 290.648H111.805C109.901 290.648 109.165 290.488 109.165 289.944V289.928C109.165 289.416 109.677 289.208 111.069 289.208H113.117C114.141 289.208 114.605 289.304 114.749 289.48C114.829 289.592 114.877 289.704 114.877 289.832V289.88C114.877 290.184 114.653 290.408 113.901 290.552C113.517 290.616 113.005 290.648 112.301 290.648ZM119.217 289H123.073V276.76H119.217V289ZM136.981 286.04H132.869C132.565 286.44 132.069 286.68 130.869 286.68C129.285 286.68 128.517 286.232 128.277 285.304H137.061V284.392C137.061 282.44 136.197 280.92 134.373 280.088C133.477 279.656 132.325 279.448 130.917 279.448C128.005 279.448 126.149 280.408 125.205 281.976C124.757 282.776 124.517 283.608 124.517 284.6C124.517 285.944 124.885 287.096 125.829 287.96C126.773 288.824 128.293 289.304 130.629 289.304C134.165 289.304 136.181 288.36 136.981 286.04ZM130.869 282.104C132.261 282.104 132.997 282.472 133.237 283.432H128.341C128.645 282.568 129.429 282.104 130.869 282.104ZM146.532 282.184L152.164 289H155.764V277.528H152.068V284.12L146.564 277.528H142.82V289H146.532V282.184ZM161.607 285.736H168.439V282.6H161.607V280.824H168.551V277.528H157.895V289H161.607V285.736ZM177.606 280.888H181.446V277.528H169.958V280.888H173.67V289H177.606V280.888Z" fill="black"/>
<path d="M34.8466 319V309.2H40.7686V310.012H35.7426V313.68H40.3766V314.492H35.7426V318.188H40.8246V319H34.8466ZM42.7899 319V309.2H46.6259C47.2326 309.2 47.7646 309.303 48.2219 309.508C48.6886 309.713 49.0526 310.012 49.3139 310.404C49.5846 310.787 49.7199 311.253 49.7199 311.804V311.944C49.7199 312.607 49.5613 313.129 49.2439 313.512C48.9266 313.885 48.5533 314.133 48.1239 314.254V314.422C48.4506 314.431 48.7259 314.534 48.9499 314.73C49.1739 314.926 49.2859 315.239 49.2859 315.668V319H48.3899V315.766C48.3899 315.467 48.3059 315.239 48.1379 315.08C47.9793 314.921 47.7366 314.842 47.4099 314.842H43.6859V319H42.7899ZM43.6859 314.03H46.5419C47.2699 314.03 47.8299 313.862 48.2219 313.526C48.6233 313.181 48.8239 312.691 48.8239 312.056V311.986C48.8239 311.351 48.6279 310.866 48.2359 310.53C47.8533 310.185 47.2886 310.012 46.5419 310.012H43.6859V314.03ZM55.094 319.196C53.946 319.196 53.0266 318.86 52.336 318.188C51.6546 317.507 51.314 316.513 51.314 315.206V312.994C51.314 311.687 51.6546 310.698 52.336 310.026C53.0266 309.345 53.946 309.004 55.094 309.004C56.2326 309.004 57.1006 309.326 57.698 309.97C58.3046 310.605 58.608 311.473 58.608 312.574V312.644H57.712V312.546C57.712 311.743 57.4973 311.09 57.068 310.586C56.648 310.073 55.99 309.816 55.094 309.816C54.1886 309.816 53.4793 310.091 52.966 310.642C52.462 311.193 52.21 311.967 52.21 312.966V315.234C52.21 316.233 52.462 317.007 52.966 317.558C53.4793 318.109 54.1886 318.384 55.094 318.384C55.99 318.384 56.648 318.132 57.068 317.628C57.4973 317.115 57.712 316.457 57.712 315.654V315.444H58.608V315.626C58.608 316.727 58.3046 317.6 57.698 318.244C57.1006 318.879 56.2326 319.196 55.094 319.196ZM60.5627 315.78V314.996H64.7067V315.78H60.5627ZM67.2595 319V318.664C67.2595 318.347 67.2875 318.085 67.3435 317.88C67.3995 317.665 67.5069 317.409 67.6655 317.11L71.5715 310.11V309.984H65.5095V309.2H72.4955V310.222L68.4075 317.558C68.3049 317.745 68.2302 317.917 68.1835 318.076C68.1462 318.225 68.1275 318.421 68.1275 318.664V319H67.2595ZM73.6245 319V318.034C73.6245 317.334 73.7505 316.783 74.0025 316.382C74.2545 315.971 74.6045 315.645 75.0525 315.402C75.5098 315.159 76.0465 314.945 76.6625 314.758L77.3625 314.534C77.8198 314.394 78.2212 314.226 78.5665 314.03C78.9212 313.825 79.1965 313.563 79.3925 313.246C79.5885 312.929 79.6865 312.527 79.6865 312.042V311.986C79.6865 311.305 79.4485 310.768 78.9725 310.376C78.5058 309.984 77.9085 309.788 77.1805 309.788C76.4058 309.788 75.7712 309.998 75.2765 310.418C74.7818 310.829 74.5345 311.459 74.5345 312.308V312.49H73.6945V312.308C73.6945 311.599 73.8438 311.001 74.1425 310.516C74.4412 310.021 74.8518 309.648 75.3745 309.396C75.9065 309.135 76.5085 309.004 77.1805 309.004C77.8525 309.004 78.4405 309.13 78.9445 309.382C79.4578 309.625 79.8545 309.97 80.1345 310.418C80.4145 310.857 80.5545 311.37 80.5545 311.958V312.084C80.5545 312.719 80.4285 313.241 80.1765 313.652C79.9338 314.053 79.5885 314.385 79.1405 314.646C78.6925 314.898 78.1652 315.122 77.5585 315.318L76.8585 315.528C76.3545 315.687 75.9252 315.855 75.5705 316.032C75.2252 316.2 74.9592 316.429 74.7725 316.718C74.5858 316.998 74.4925 317.39 74.4925 317.894V318.216H80.4705V319H73.6245ZM84.8867 319V309.732H84.7047L82.5627 313.372H81.5827L84.0607 309.2H85.7547V319H84.8867ZM91.8043 319V312.196H92.6163V313.456H92.7843C92.9523 313.092 93.2276 312.77 93.6103 312.49C93.9929 312.201 94.5483 312.056 95.2763 312.056C95.7709 312.056 96.2236 312.159 96.6343 312.364C97.0449 312.569 97.3716 312.882 97.6143 313.302C97.8663 313.713 97.9923 314.231 97.9923 314.856V319H97.1523V314.912C97.1523 314.165 96.9656 313.629 96.5923 313.302C96.2189 312.975 95.7196 312.812 95.0943 312.812C94.3943 312.812 93.8109 313.045 93.3443 313.512C92.8776 313.969 92.6443 314.665 92.6443 315.598V319H91.8043ZM103.485 319.196C102.794 319.196 102.187 319.051 101.665 318.762C101.151 318.463 100.75 318.053 100.461 317.53C100.181 316.998 100.041 316.382 100.041 315.682V315.514C100.041 314.814 100.181 314.203 100.461 313.68C100.75 313.148 101.151 312.737 101.665 312.448C102.187 312.149 102.794 312 103.485 312C104.175 312 104.777 312.149 105.291 312.448C105.813 312.737 106.215 313.148 106.495 313.68C106.784 314.203 106.929 314.814 106.929 315.514V315.682C106.929 316.382 106.784 316.998 106.495 317.53C106.215 318.053 105.813 318.463 105.291 318.762C104.777 319.051 104.175 319.196 103.485 319.196ZM103.485 318.44C104.287 318.44 104.922 318.188 105.389 317.684C105.855 317.171 106.089 316.494 106.089 315.654V315.542C106.089 314.702 105.855 314.03 105.389 313.526C104.922 313.013 104.287 312.756 103.485 312.756C102.691 312.756 102.057 313.013 101.581 313.526C101.114 314.03 100.881 314.702 100.881 315.542V315.654C100.881 316.494 101.114 317.171 101.581 317.684C102.057 318.188 102.691 318.44 103.485 318.44ZM109.058 319V312.196H109.87V313.456H110.038C110.206 313.092 110.482 312.77 110.864 312.49C111.247 312.201 111.802 312.056 112.53 312.056C113.025 312.056 113.478 312.159 113.888 312.364C114.299 312.569 114.626 312.882 114.868 313.302C115.12 313.713 115.246 314.231 115.246 314.856V319H114.406V314.912C114.406 314.165 114.22 313.629 113.846 313.302C113.473 312.975 112.974 312.812 112.348 312.812C111.648 312.812 111.065 313.045 110.598 313.512C110.132 313.969 109.898 314.665 109.898 315.598V319H109.058ZM117.574 315.78V314.996H121.718V315.78H117.574ZM125.142 319V312.952H122.902V312.196H125.142V310.264C125.142 309.928 125.231 309.667 125.408 309.48C125.595 309.293 125.87 309.2 126.234 309.2H127.914V309.956H126.402C126.122 309.956 125.982 310.096 125.982 310.376V312.196H128.278V312.952H125.982V319H125.142ZM132.553 319.14C132.068 319.14 131.615 319.037 131.195 318.832C130.784 318.627 130.453 318.319 130.201 317.908C129.958 317.488 129.837 316.965 129.837 316.34V312.196H130.677V316.284C130.677 317.021 130.864 317.558 131.237 317.894C131.61 318.221 132.11 318.384 132.735 318.384C133.435 318.384 134.018 318.155 134.485 317.698C134.952 317.231 135.185 316.531 135.185 315.598V312.196H136.025V319H135.213V317.74H135.045C134.877 318.104 134.602 318.431 134.219 318.72C133.836 319 133.281 319.14 132.553 319.14ZM138.494 319V312.196H139.306V313.456H139.474C139.642 313.092 139.917 312.77 140.3 312.49C140.682 312.201 141.238 312.056 141.966 312.056C142.46 312.056 142.913 312.159 143.324 312.364C143.734 312.569 144.061 312.882 144.304 313.302C144.556 313.713 144.682 314.231 144.682 314.856V319H143.842V314.912C143.842 314.165 143.655 313.629 143.282 313.302C142.908 312.975 142.409 312.812 141.784 312.812C141.084 312.812 140.5 313.045 140.034 313.512C139.567 313.969 139.334 314.665 139.334 315.598V319H138.494ZM146.73 315.626V315.458C146.73 314.739 146.875 314.123 147.164 313.61C147.463 313.097 147.859 312.7 148.354 312.42C148.849 312.14 149.399 312 150.006 312C150.753 312 151.331 312.149 151.742 312.448C152.162 312.737 152.47 313.069 152.666 313.442H152.834V312.196H153.618V320.736C153.618 321.072 153.529 321.333 153.352 321.52C153.175 321.707 152.904 321.8 152.54 321.8H147.892V321.044H152.372C152.661 321.044 152.806 320.904 152.806 320.624V317.698H152.638C152.517 317.922 152.344 318.141 152.12 318.356C151.905 318.571 151.625 318.748 151.28 318.888C150.935 319.019 150.51 319.084 150.006 319.084C149.399 319.084 148.844 318.944 148.34 318.664C147.845 318.384 147.453 317.987 147.164 317.474C146.875 316.951 146.73 316.335 146.73 315.626ZM150.202 318.328C150.977 318.328 151.602 318.085 152.078 317.6C152.563 317.115 152.806 316.447 152.806 315.598V315.486C152.806 314.627 152.563 313.96 152.078 313.484C151.602 312.999 150.977 312.756 150.202 312.756C149.437 312.756 148.811 312.999 148.326 313.484C147.841 313.96 147.598 314.627 147.598 315.486V315.598C147.598 316.447 147.841 317.115 148.326 317.6C148.811 318.085 149.437 318.328 150.202 318.328ZM156.076 319V312.196H156.916V319H156.076ZM156.496 311.02C156.29 311.02 156.118 310.95 155.978 310.81C155.838 310.67 155.768 310.497 155.768 310.292C155.768 310.077 155.838 309.905 155.978 309.774C156.118 309.634 156.29 309.564 156.496 309.564C156.71 309.564 156.883 309.634 157.014 309.774C157.154 309.905 157.224 310.077 157.224 310.292C157.224 310.497 157.154 310.67 157.014 310.81C156.883 310.95 156.71 311.02 156.496 311.02ZM163.024 319.196C162.278 319.196 161.694 319.051 161.274 318.762C160.864 318.463 160.56 318.127 160.364 317.754H160.196V319H159.384V309.2H160.224V313.386H160.392C160.514 313.153 160.682 312.933 160.896 312.728C161.12 312.513 161.405 312.341 161.75 312.21C162.105 312.07 162.53 312 163.024 312C163.64 312 164.196 312.145 164.69 312.434C165.185 312.714 165.577 313.12 165.866 313.652C166.156 314.175 166.3 314.795 166.3 315.514V315.682C166.3 316.401 166.151 317.026 165.852 317.558C165.563 318.081 165.171 318.487 164.676 318.776C164.182 319.056 163.631 319.196 163.024 319.196ZM162.828 318.44C163.603 318.44 164.228 318.193 164.704 317.698C165.19 317.203 165.432 316.522 165.432 315.654V315.542C165.432 314.674 165.19 313.993 164.704 313.498C164.228 313.003 163.603 312.756 162.828 312.756C162.063 312.756 161.438 313.003 160.952 313.498C160.467 313.993 160.224 314.674 160.224 315.542V315.654C160.224 316.522 160.467 317.203 160.952 317.698C161.438 318.193 162.063 318.44 162.828 318.44ZM168.435 319V309.2H169.275V319H168.435ZM174.88 319.196C174.18 319.196 173.568 319.051 173.046 318.762C172.532 318.463 172.131 318.048 171.842 317.516C171.552 316.984 171.408 316.373 171.408 315.682V315.514C171.408 314.814 171.552 314.203 171.842 313.68C172.131 313.148 172.528 312.737 173.032 312.448C173.545 312.149 174.128 312 174.782 312C175.416 312 175.976 312.135 176.462 312.406C176.956 312.667 177.344 313.05 177.624 313.554C177.904 314.049 178.044 314.641 178.044 315.332V315.78H172.248C172.276 316.629 172.532 317.287 173.018 317.754C173.512 318.211 174.133 318.44 174.88 318.44C175.514 318.44 176.004 318.295 176.35 318.006C176.704 317.717 176.975 317.362 177.162 316.942L177.918 317.278C177.778 317.586 177.582 317.889 177.33 318.188C177.087 318.477 176.77 318.72 176.378 318.916C175.986 319.103 175.486 319.196 174.88 319.196ZM172.262 315.052H177.19C177.152 314.315 176.914 313.75 176.476 313.358C176.037 312.957 175.472 312.756 174.782 312.756C174.1 312.756 173.536 312.957 173.088 313.358C172.64 313.75 172.364 314.315 172.262 315.052ZM186.184 319C185.82 319 185.545 318.907 185.358 318.72C185.181 318.533 185.092 318.272 185.092 317.936V312.952H182.908V312.196H185.092V309.648H185.932V312.196H188.312V312.952H185.932V317.824C185.932 318.104 186.072 318.244 186.352 318.244H187.948V319H186.184ZM193.049 319.196C192.358 319.196 191.752 319.051 191.229 318.762C190.716 318.463 190.314 318.053 190.025 317.53C189.745 316.998 189.605 316.382 189.605 315.682V315.514C189.605 314.814 189.745 314.203 190.025 313.68C190.314 313.148 190.716 312.737 191.229 312.448C191.752 312.149 192.358 312 193.049 312C193.74 312 194.342 312.149 194.855 312.448C195.378 312.737 195.779 313.148 196.059 313.68C196.348 314.203 196.493 314.814 196.493 315.514V315.682C196.493 316.382 196.348 316.998 196.059 317.53C195.779 318.053 195.378 318.463 194.855 318.762C194.342 319.051 193.74 319.196 193.049 319.196ZM193.049 318.44C193.852 318.44 194.486 318.188 194.953 317.684C195.42 317.171 195.653 316.494 195.653 315.654V315.542C195.653 314.702 195.42 314.03 194.953 313.526C194.486 313.013 193.852 312.756 193.049 312.756C192.256 312.756 191.621 313.013 191.145 313.526C190.678 314.03 190.445 314.702 190.445 315.542V315.654C190.445 316.494 190.678 317.171 191.145 317.684C191.621 318.188 192.256 318.44 193.049 318.44ZM198.623 319V309.2H199.463V315.108H199.631L203.117 312.196H204.349L200.317 315.514L204.461 319H203.243L199.631 315.934H199.463V319H198.623ZM208.786 319.196C208.086 319.196 207.475 319.051 206.952 318.762C206.439 318.463 206.037 318.048 205.748 317.516C205.459 316.984 205.314 316.373 205.314 315.682V315.514C205.314 314.814 205.459 314.203 205.748 313.68C206.037 313.148 206.434 312.737 206.938 312.448C207.451 312.149 208.035 312 208.688 312C209.323 312 209.883 312.135 210.368 312.406C210.863 312.667 211.25 313.05 211.53 313.554C211.81 314.049 211.95 314.641 211.95 315.332V315.78H206.154C206.182 316.629 206.439 317.287 206.924 317.754C207.419 318.211 208.039 318.44 208.786 318.44C209.421 318.44 209.911 318.295 210.256 318.006C210.611 317.717 210.881 317.362 211.068 316.942L211.824 317.278C211.684 317.586 211.488 317.889 211.236 318.188C210.993 318.477 210.676 318.72 210.284 318.916C209.892 319.103 209.393 319.196 208.786 319.196ZM206.168 315.052H211.096C211.059 314.315 210.821 313.75 210.382 313.358C209.943 312.957 209.379 312.756 208.688 312.756C208.007 312.756 207.442 312.957 206.994 313.358C206.546 313.75 206.271 314.315 206.168 315.052ZM214.017 319V312.196H214.829V313.456H214.997C215.165 313.092 215.44 312.77 215.823 312.49C216.206 312.201 216.761 312.056 217.489 312.056C217.984 312.056 218.436 312.159 218.847 312.364C219.258 312.569 219.584 312.882 219.827 313.302C220.079 313.713 220.205 314.231 220.205 314.856V319H219.365V314.912C219.365 314.165 219.178 313.629 218.805 313.302C218.432 312.975 217.932 312.812 217.307 312.812C216.607 312.812 216.024 313.045 215.557 313.512C215.09 313.969 214.857 314.665 214.857 315.598V319H214.017Z" fill="black" fill-opacity="0.6"/>
<rect x="12" y="12" width="231" height="231" rx="5" fill="white"/>
<rect x="12.5" y="12.5" width="230" height="230" rx="4.5" stroke="black" stroke-opacity="0.1"/>
<rect x="85.5" y="83.5" width="84" height="84" rx="4.5" fill="white" stroke="#E1E1E1"/>
<path d="M168.509 165.443L134.166 131.101C130.485 127.419 124.516 127.419 120.834 131.101L86.4922 165.443" stroke="#E1E1E1"/>
<circle cx="106.702" cy="108.319" r="6.73404" fill="white" stroke="#E1E1E1"/>
</svg>
