<svg width="255" height="386" viewBox="0 0 255 386" fill="none" xmlns="http://www.w3.org/2000/svg">
<rect x="12.5" y="18.5" width="230" height="367" rx="11.5" fill="white" stroke="url(#paint0_linear)"/>
<rect x="6.5" y="4.5" width="242" height="377" rx="11.5" fill="white" stroke="url(#paint1_linear)"/>
<rect x="0.5" y="0.5" width="254" height="377" rx="11.5" fill="white" stroke="url(#paint2_linear)"/>
<path d="M34.8466 319V309.2H40.7686V310.012H35.7426V313.68H40.3766V314.492H35.7426V318.188H40.8246V319H34.8466ZM42.7899 319V309.2H46.6259C47.2326 309.2 47.7646 309.303 48.2219 309.508C48.6886 309.713 49.0526 310.012 49.3139 310.404C49.5846 310.787 49.7199 311.253 49.7199 311.804V311.944C49.7199 312.607 49.5613 313.129 49.2439 313.512C48.9266 313.885 48.5533 314.133 48.1239 314.254V314.422C48.4506 314.431 48.7259 314.534 48.9499 314.73C49.1739 314.926 49.2859 315.239 49.2859 315.668V319H48.3899V315.766C48.3899 315.467 48.3059 315.239 48.1379 315.08C47.9793 314.921 47.7366 314.842 47.4099 314.842H43.6859V319H42.7899ZM43.6859 314.03H46.5419C47.2699 314.03 47.8299 313.862 48.2219 313.526C48.6233 313.181 48.8239 312.691 48.8239 312.056V311.986C48.8239 311.351 48.6279 310.866 48.2359 310.53C47.8533 310.185 47.2886 310.012 46.5419 310.012H43.6859V314.03ZM55.094 319.196C53.946 319.196 53.0266 318.86 52.336 318.188C51.6546 317.507 51.314 316.513 51.314 315.206V312.994C51.314 311.687 51.6546 310.698 52.336 310.026C53.0266 309.345 53.946 309.004 55.094 309.004C56.2326 309.004 57.1006 309.326 57.698 309.97C58.3046 310.605 58.608 311.473 58.608 312.574V312.644H57.712V312.546C57.712 311.743 57.4973 311.09 57.068 310.586C56.648 310.073 55.99 309.816 55.094 309.816C54.1886 309.816 53.4793 310.091 52.966 310.642C52.462 311.193 52.21 311.967 52.21 312.966V315.234C52.21 316.233 52.462 317.007 52.966 317.558C53.4793 318.109 54.1886 318.384 55.094 318.384C55.99 318.384 56.648 318.132 57.068 317.628C57.4973 317.115 57.712 316.457 57.712 315.654V315.444H58.608V315.626C58.608 316.727 58.3046 317.6 57.698 318.244C57.1006 318.879 56.2326 319.196 55.094 319.196ZM60.5627 315.78V314.996H64.7067V315.78H60.5627ZM67.2595 319V318.664C67.2595 318.347 67.2875 318.085 67.3435 317.88C67.3995 317.665 67.5069 317.409 67.6655 317.11L71.5715 310.11V309.984H65.5095V309.2H72.4955V310.222L68.4075 317.558C68.3049 317.745 68.2302 317.917 68.1835 318.076C68.1462 318.225 68.1275 318.421 68.1275 318.664V319H67.2595ZM73.6245 319V318.034C73.6245 317.334 73.7505 316.783 74.0025 316.382C74.2545 315.971 74.6045 315.645 75.0525 315.402C75.5098 315.159 76.0465 314.945 76.6625 314.758L77.3625 314.534C77.8198 314.394 78.2212 314.226 78.5665 314.03C78.9212 313.825 79.1965 313.563 79.3925 313.246C79.5885 312.929 79.6865 312.527 79.6865 312.042V311.986C79.6865 311.305 79.4485 310.768 78.9725 310.376C78.5058 309.984 77.9085 309.788 77.1805 309.788C76.4058 309.788 75.7712 309.998 75.2765 310.418C74.7818 310.829 74.5345 311.459 74.5345 312.308V312.49H73.6945V312.308C73.6945 311.599 73.8438 311.001 74.1425 310.516C74.4412 310.021 74.8518 309.648 75.3745 309.396C75.9065 309.135 76.5085 309.004 77.1805 309.004C77.8525 309.004 78.4405 309.13 78.9445 309.382C79.4578 309.625 79.8545 309.97 80.1345 310.418C80.4145 310.857 80.5545 311.37 80.5545 311.958V312.084C80.5545 312.719 80.4285 313.241 80.1765 313.652C79.9338 314.053 79.5885 314.385 79.1405 314.646C78.6925 314.898 78.1652 315.122 77.5585 315.318L76.8585 315.528C76.3545 315.687 75.9252 315.855 75.5705 316.032C75.2252 316.2 74.9592 316.429 74.7725 316.718C74.5858 316.998 74.4925 317.39 74.4925 317.894V318.216H80.4705V319H73.6245ZM84.8867 319V309.732H84.7047L82.5627 313.372H81.5827L84.0607 309.2H85.7547V319H84.8867ZM91.8043 319V312.196H92.6163V313.456H92.7843C92.9523 313.092 93.2276 312.77 93.6103 312.49C93.9929 312.201 94.5483 312.056 95.2763 312.056C95.7709 312.056 96.2236 312.159 96.6343 312.364C97.0449 312.569 97.3716 312.882 97.6143 313.302C97.8663 313.713 97.9923 314.231 97.9923 314.856V319H97.1523V314.912C97.1523 314.165 96.9656 313.629 96.5923 313.302C96.2189 312.975 95.7196 312.812 95.0943 312.812C94.3943 312.812 93.8109 313.045 93.3443 313.512C92.8776 313.969 92.6443 314.665 92.6443 315.598V319H91.8043ZM103.485 319.196C102.794 319.196 102.187 319.051 101.665 318.762C101.151 318.463 100.75 318.053 100.461 317.53C100.181 316.998 100.041 316.382 100.041 315.682V315.514C100.041 314.814 100.181 314.203 100.461 313.68C100.75 313.148 101.151 312.737 101.665 312.448C102.187 312.149 102.794 312 103.485 312C104.175 312 104.777 312.149 105.291 312.448C105.813 312.737 106.215 313.148 106.495 313.68C106.784 314.203 106.929 314.814 106.929 315.514V315.682C106.929 316.382 106.784 316.998 106.495 317.53C106.215 318.053 105.813 318.463 105.291 318.762C104.777 319.051 104.175 319.196 103.485 319.196ZM103.485 318.44C104.287 318.44 104.922 318.188 105.389 317.684C105.855 317.171 106.089 316.494 106.089 315.654V315.542C106.089 314.702 105.855 314.03 105.389 313.526C104.922 313.013 104.287 312.756 103.485 312.756C102.691 312.756 102.057 313.013 101.581 313.526C101.114 314.03 100.881 314.702 100.881 315.542V315.654C100.881 316.494 101.114 317.171 101.581 317.684C102.057 318.188 102.691 318.44 103.485 318.44ZM109.058 319V312.196H109.87V313.456H110.038C110.206 313.092 110.482 312.77 110.864 312.49C111.247 312.201 111.802 312.056 112.53 312.056C113.025 312.056 113.478 312.159 113.888 312.364C114.299 312.569 114.626 312.882 114.868 313.302C115.12 313.713 115.246 314.231 115.246 314.856V319H114.406V314.912C114.406 314.165 114.22 313.629 113.846 313.302C113.473 312.975 112.974 312.812 112.348 312.812C111.648 312.812 111.065 313.045 110.598 313.512C110.132 313.969 109.898 314.665 109.898 315.598V319H109.058ZM117.574 315.78V314.996H121.718V315.78H117.574ZM125.142 319V312.952H122.902V312.196H125.142V310.264C125.142 309.928 125.231 309.667 125.408 309.48C125.595 309.293 125.87 309.2 126.234 309.2H127.914V309.956H126.402C126.122 309.956 125.982 310.096 125.982 310.376V312.196H128.278V312.952H125.982V319H125.142ZM132.553 319.14C132.068 319.14 131.615 319.037 131.195 318.832C130.784 318.627 130.453 318.319 130.201 317.908C129.958 317.488 129.837 316.965 129.837 316.34V312.196H130.677V316.284C130.677 317.021 130.864 317.558 131.237 317.894C131.61 318.221 132.11 318.384 132.735 318.384C133.435 318.384 134.018 318.155 134.485 317.698C134.952 317.231 135.185 316.531 135.185 315.598V312.196H136.025V319H135.213V317.74H135.045C134.877 318.104 134.602 318.431 134.219 318.72C133.836 319 133.281 319.14 132.553 319.14ZM138.494 319V312.196H139.306V313.456H139.474C139.642 313.092 139.917 312.77 140.3 312.49C140.682 312.201 141.238 312.056 141.966 312.056C142.46 312.056 142.913 312.159 143.324 312.364C143.734 312.569 144.061 312.882 144.304 313.302C144.556 313.713 144.682 314.231 144.682 314.856V319H143.842V314.912C143.842 314.165 143.655 313.629 143.282 313.302C142.908 312.975 142.409 312.812 141.784 312.812C141.084 312.812 140.5 313.045 140.034 313.512C139.567 313.969 139.334 314.665 139.334 315.598V319H138.494ZM146.73 315.626V315.458C146.73 314.739 146.875 314.123 147.164 313.61C147.463 313.097 147.859 312.7 148.354 312.42C148.849 312.14 149.399 312 150.006 312C150.753 312 151.331 312.149 151.742 312.448C152.162 312.737 152.47 313.069 152.666 313.442H152.834V312.196H153.618V320.736C153.618 321.072 153.529 321.333 153.352 321.52C153.175 321.707 152.904 321.8 152.54 321.8H147.892V321.044H152.372C152.661 321.044 152.806 320.904 152.806 320.624V317.698H152.638C152.517 317.922 152.344 318.141 152.12 318.356C151.905 318.571 151.625 318.748 151.28 318.888C150.935 319.019 150.51 319.084 150.006 319.084C149.399 319.084 148.844 318.944 148.34 318.664C147.845 318.384 147.453 317.987 147.164 317.474C146.875 316.951 146.73 316.335 146.73 315.626ZM150.202 318.328C150.977 318.328 151.602 318.085 152.078 317.6C152.563 317.115 152.806 316.447 152.806 315.598V315.486C152.806 314.627 152.563 313.96 152.078 313.484C151.602 312.999 150.977 312.756 150.202 312.756C149.437 312.756 148.811 312.999 148.326 313.484C147.841 313.96 147.598 314.627 147.598 315.486V315.598C147.598 316.447 147.841 317.115 148.326 317.6C148.811 318.085 149.437 318.328 150.202 318.328ZM156.076 319V312.196H156.916V319H156.076ZM156.496 311.02C156.29 311.02 156.118 310.95 155.978 310.81C155.838 310.67 155.768 310.497 155.768 310.292C155.768 310.077 155.838 309.905 155.978 309.774C156.118 309.634 156.29 309.564 156.496 309.564C156.71 309.564 156.883 309.634 157.014 309.774C157.154 309.905 157.224 310.077 157.224 310.292C157.224 310.497 157.154 310.67 157.014 310.81C156.883 310.95 156.71 311.02 156.496 311.02ZM163.024 319.196C162.278 319.196 161.694 319.051 161.274 318.762C160.864 318.463 160.56 318.127 160.364 317.754H160.196V319H159.384V309.2H160.224V313.386H160.392C160.514 313.153 160.682 312.933 160.896 312.728C161.12 312.513 161.405 312.341 161.75 312.21C162.105 312.07 162.53 312 163.024 312C163.64 312 164.196 312.145 164.69 312.434C165.185 312.714 165.577 313.12 165.866 313.652C166.156 314.175 166.3 314.795 166.3 315.514V315.682C166.3 316.401 166.151 317.026 165.852 317.558C165.563 318.081 165.171 318.487 164.676 318.776C164.182 319.056 163.631 319.196 163.024 319.196ZM162.828 318.44C163.603 318.44 164.228 318.193 164.704 317.698C165.19 317.203 165.432 316.522 165.432 315.654V315.542C165.432 314.674 165.19 313.993 164.704 313.498C164.228 313.003 163.603 312.756 162.828 312.756C162.063 312.756 161.438 313.003 160.952 313.498C160.467 313.993 160.224 314.674 160.224 315.542V315.654C160.224 316.522 160.467 317.203 160.952 317.698C161.438 318.193 162.063 318.44 162.828 318.44ZM168.435 319V309.2H169.275V319H168.435ZM174.88 319.196C174.18 319.196 173.568 319.051 173.046 318.762C172.532 318.463 172.131 318.048 171.842 317.516C171.552 316.984 171.408 316.373 171.408 315.682V315.514C171.408 314.814 171.552 314.203 171.842 313.68C172.131 313.148 172.528 312.737 173.032 312.448C173.545 312.149 174.128 312 174.782 312C175.416 312 175.976 312.135 176.462 312.406C176.956 312.667 177.344 313.05 177.624 313.554C177.904 314.049 178.044 314.641 178.044 315.332V315.78H172.248C172.276 316.629 172.532 317.287 173.018 317.754C173.512 318.211 174.133 318.44 174.88 318.44C175.514 318.44 176.004 318.295 176.35 318.006C176.704 317.717 176.975 317.362 177.162 316.942L177.918 317.278C177.778 317.586 177.582 317.889 177.33 318.188C177.087 318.477 176.77 318.72 176.378 318.916C175.986 319.103 175.486 319.196 174.88 319.196ZM172.262 315.052H177.19C177.152 314.315 176.914 313.75 176.476 313.358C176.037 312.957 175.472 312.756 174.782 312.756C174.1 312.756 173.536 312.957 173.088 313.358C172.64 313.75 172.364 314.315 172.262 315.052ZM186.184 319C185.82 319 185.545 318.907 185.358 318.72C185.181 318.533 185.092 318.272 185.092 317.936V312.952H182.908V312.196H185.092V309.648H185.932V312.196H188.312V312.952H185.932V317.824C185.932 318.104 186.072 318.244 186.352 318.244H187.948V319H186.184ZM193.049 319.196C192.358 319.196 191.752 319.051 191.229 318.762C190.716 318.463 190.314 318.053 190.025 317.53C189.745 316.998 189.605 316.382 189.605 315.682V315.514C189.605 314.814 189.745 314.203 190.025 313.68C190.314 313.148 190.716 312.737 191.229 312.448C191.752 312.149 192.358 312 193.049 312C193.74 312 194.342 312.149 194.855 312.448C195.378 312.737 195.779 313.148 196.059 313.68C196.348 314.203 196.493 314.814 196.493 315.514V315.682C196.493 316.382 196.348 316.998 196.059 317.53C195.779 318.053 195.378 318.463 194.855 318.762C194.342 319.051 193.74 319.196 193.049 319.196ZM193.049 318.44C193.852 318.44 194.486 318.188 194.953 317.684C195.42 317.171 195.653 316.494 195.653 315.654V315.542C195.653 314.702 195.42 314.03 194.953 313.526C194.486 313.013 193.852 312.756 193.049 312.756C192.256 312.756 191.621 313.013 191.145 313.526C190.678 314.03 190.445 314.702 190.445 315.542V315.654C190.445 316.494 190.678 317.171 191.145 317.684C191.621 318.188 192.256 318.44 193.049 318.44ZM198.623 319V309.2H199.463V315.108H199.631L203.117 312.196H204.349L200.317 315.514L204.461 319H203.243L199.631 315.934H199.463V319H198.623ZM208.786 319.196C208.086 319.196 207.475 319.051 206.952 318.762C206.439 318.463 206.037 318.048 205.748 317.516C205.459 316.984 205.314 316.373 205.314 315.682V315.514C205.314 314.814 205.459 314.203 205.748 313.68C206.037 313.148 206.434 312.737 206.938 312.448C207.451 312.149 208.035 312 208.688 312C209.323 312 209.883 312.135 210.368 312.406C210.863 312.667 211.25 313.05 211.53 313.554C211.81 314.049 211.95 314.641 211.95 315.332V315.78H206.154C206.182 316.629 206.439 317.287 206.924 317.754C207.419 318.211 208.039 318.44 208.786 318.44C209.421 318.44 209.911 318.295 210.256 318.006C210.611 317.717 210.881 317.362 211.068 316.942L211.824 317.278C211.684 317.586 211.488 317.889 211.236 318.188C210.993 318.477 210.676 318.72 210.284 318.916C209.892 319.103 209.393 319.196 208.786 319.196ZM206.168 315.052H211.096C211.059 314.315 210.821 313.75 210.382 313.358C209.943 312.957 209.379 312.756 208.688 312.756C208.007 312.756 207.442 312.957 206.994 313.358C206.546 313.75 206.271 314.315 206.168 315.052ZM214.017 319V312.196H214.829V313.456H214.997C215.165 313.092 215.44 312.77 215.823 312.49C216.206 312.201 216.761 312.056 217.489 312.056C217.984 312.056 218.436 312.159 218.847 312.364C219.258 312.569 219.584 312.882 219.827 313.302C220.079 313.713 220.205 314.231 220.205 314.856V319H219.365V314.912C219.365 314.165 219.178 313.629 218.805 313.302C218.432 312.975 217.932 312.812 217.307 312.812C216.607 312.812 216.024 313.045 215.557 313.512C215.09 313.969 214.857 314.665 214.857 315.598V319H214.017ZM35.3862 341L33.8462 334.196H34.7142L36.0582 340.44H36.2262L37.9762 334.196H39.4042L41.1542 340.44H41.3222L42.6662 334.196H43.5342L41.9942 341H40.5242L38.7742 334.756H38.6062L36.8562 341H35.3862ZM45.5728 341V334.196H46.4128V341H45.5728ZM45.9928 333.02C45.7875 333.02 45.6148 332.95 45.4748 332.81C45.3348 332.67 45.2648 332.497 45.2648 332.292C45.2648 332.077 45.3348 331.905 45.4748 331.774C45.6148 331.634 45.7875 331.564 45.9928 331.564C46.2075 331.564 46.3802 331.634 46.5108 331.774C46.6508 331.905 46.7208 332.077 46.7208 332.292C46.7208 332.497 46.6508 332.67 46.5108 332.81C46.3802 332.95 46.2075 333.02 45.9928 333.02ZM51.3454 341C50.9814 341 50.7061 340.907 50.5194 340.72C50.3421 340.533 50.2534 340.272 50.2534 339.936V334.952H48.0694V334.196H50.2534V331.648H51.0934V334.196H53.4734V334.952H51.0934V339.824C51.0934 340.104 51.2334 340.244 51.5134 340.244H53.1094V341H51.3454ZM55.3482 341V331.2H56.1882V335.386H56.3562C56.4682 335.162 56.6222 334.952 56.8182 334.756C57.0235 334.551 57.2849 334.387 57.6022 334.266C57.9289 334.135 58.3349 334.07 58.8202 334.07C59.3149 334.07 59.7675 334.173 60.1782 334.378C60.5889 334.583 60.9155 334.891 61.1582 335.302C61.4102 335.713 61.5362 336.231 61.5362 336.856V341H60.6962V336.912C60.6962 336.165 60.5095 335.633 60.1362 335.316C59.7629 334.989 59.2635 334.826 58.6382 334.826C57.9382 334.826 57.3549 335.055 56.8882 335.512C56.4215 335.969 56.1882 336.665 56.1882 337.598V341H55.3482ZM71.1699 341.196C70.4232 341.196 69.8399 341.051 69.4199 340.762C69.0092 340.463 68.7059 340.127 68.5099 339.754H68.3419V341H67.5299V331.2H68.3699V335.386H68.5379C68.6592 335.153 68.8272 334.933 69.0419 334.728C69.2659 334.513 69.5505 334.341 69.8959 334.21C70.2505 334.07 70.6752 334 71.1699 334C71.7859 334 72.3412 334.145 72.8359 334.434C73.3305 334.714 73.7225 335.12 74.0119 335.652C74.3012 336.175 74.4459 336.795 74.4459 337.514V337.682C74.4459 338.401 74.2965 339.026 73.9979 339.558C73.7085 340.081 73.3165 340.487 72.8219 340.776C72.3272 341.056 71.7765 341.196 71.1699 341.196ZM70.9739 340.44C71.7485 340.44 72.3739 340.193 72.8499 339.698C73.3352 339.203 73.5779 338.522 73.5779 337.654V337.542C73.5779 336.674 73.3352 335.993 72.8499 335.498C72.3739 335.003 71.7485 334.756 70.9739 334.756C70.2085 334.756 69.5832 335.003 69.0979 335.498C68.6125 335.993 68.3699 336.674 68.3699 337.542V337.654C68.3699 338.522 68.6125 339.203 69.0979 339.698C69.5832 340.193 70.2085 340.44 70.9739 340.44ZM79.1986 341.14C78.7133 341.14 78.2606 341.037 77.8406 340.832C77.43 340.627 77.0986 340.319 76.8466 339.908C76.604 339.488 76.4826 338.965 76.4826 338.34V334.196H77.3226V338.284C77.3226 339.021 77.5093 339.558 77.8826 339.894C78.256 340.221 78.7553 340.384 79.3806 340.384C80.0806 340.384 80.664 340.155 81.1306 339.698C81.5973 339.231 81.8306 338.531 81.8306 337.598V334.196H82.6706V341H81.8586V339.74H81.6906C81.5226 340.104 81.2473 340.431 80.8646 340.72C80.482 341 79.9266 341.14 79.1986 341.14ZM85.1392 341V334.196H85.9792V341H85.1392ZM85.5592 333.02C85.3539 333.02 85.1812 332.95 85.0412 332.81C84.9012 332.67 84.8312 332.497 84.8312 332.292C84.8312 332.077 84.9012 331.905 85.0412 331.774C85.1812 331.634 85.3539 331.564 85.5592 331.564C85.7739 331.564 85.9466 331.634 86.0772 331.774C86.2172 331.905 86.2872 332.077 86.2872 332.292C86.2872 332.497 86.2172 332.67 86.0772 332.81C85.9466 332.95 85.7739 333.02 85.5592 333.02ZM88.4478 341V331.2H89.2878V341H88.4478ZM94.2204 341C93.8564 341 93.5811 340.907 93.3944 340.72C93.2171 340.533 93.1284 340.272 93.1284 339.936V334.952H90.9444V334.196H93.1284V331.648H93.9684V334.196H96.3484V334.952H93.9684V339.824C93.9684 340.104 94.1084 340.244 94.3884 340.244H95.9844V341H94.2204ZM97.9621 337.78V336.996H102.106V337.78H97.9621ZM104.512 341V334.196H105.352V341H104.512ZM104.932 333.02C104.727 333.02 104.554 332.95 104.414 332.81C104.274 332.67 104.204 332.497 104.204 332.292C104.204 332.077 104.274 331.905 104.414 331.774C104.554 331.634 104.727 331.564 104.932 331.564C105.147 331.564 105.32 331.634 105.45 331.774C105.59 331.905 105.66 332.077 105.66 332.292C105.66 332.497 105.59 332.67 105.45 332.81C105.32 332.95 105.147 333.02 104.932 333.02ZM107.821 341V334.196H108.633V335.456H108.801C108.969 335.092 109.244 334.77 109.627 334.49C110.01 334.201 110.565 334.056 111.293 334.056C111.788 334.056 112.24 334.159 112.651 334.364C113.062 334.569 113.388 334.882 113.631 335.302C113.883 335.713 114.009 336.231 114.009 336.856V341H113.169V336.912C113.169 336.165 112.982 335.629 112.609 335.302C112.236 334.975 111.736 334.812 111.111 334.812C110.411 334.812 109.828 335.045 109.361 335.512C108.894 335.969 108.661 336.665 108.661 337.598V341H107.821ZM119.975 341V331.2H125.897V332.012H120.871V335.68H125.505V336.492H120.871V340.188H125.953V341H119.975ZM127.918 341V331.2H131.754C132.361 331.2 132.893 331.303 133.35 331.508C133.817 331.713 134.181 332.012 134.442 332.404C134.713 332.787 134.848 333.253 134.848 333.804V333.944C134.848 334.607 134.689 335.129 134.372 335.512C134.055 335.885 133.681 336.133 133.252 336.254V336.422C133.579 336.431 133.854 336.534 134.078 336.73C134.302 336.926 134.414 337.239 134.414 337.668V341H133.518V337.766C133.518 337.467 133.434 337.239 133.266 337.08C133.107 336.921 132.865 336.842 132.538 336.842H128.814V341H127.918ZM128.814 336.03H131.67C132.398 336.03 132.958 335.862 133.35 335.526C133.751 335.181 133.952 334.691 133.952 334.056V333.986C133.952 333.351 133.756 332.866 133.364 332.53C132.981 332.185 132.417 332.012 131.67 332.012H128.814V336.03ZM140.222 341.196C139.074 341.196 138.155 340.86 137.464 340.188C136.783 339.507 136.442 338.513 136.442 337.206V334.994C136.442 333.687 136.783 332.698 137.464 332.026C138.155 331.345 139.074 331.004 140.222 331.004C141.361 331.004 142.229 331.326 142.826 331.97C143.433 332.605 143.736 333.473 143.736 334.574V334.644H142.84V334.546C142.84 333.743 142.625 333.09 142.196 332.586C141.776 332.073 141.118 331.816 140.222 331.816C139.317 331.816 138.607 332.091 138.094 332.642C137.59 333.193 137.338 333.967 137.338 334.966V337.234C137.338 338.233 137.59 339.007 138.094 339.558C138.607 340.109 139.317 340.384 140.222 340.384C141.118 340.384 141.776 340.132 142.196 339.628C142.625 339.115 142.84 338.457 142.84 337.654V337.444H143.736V337.626C143.736 338.727 143.433 339.6 142.826 340.244C142.229 340.879 141.361 341.196 140.222 341.196ZM145.691 337.78V336.996H149.835V337.78H145.691ZM152.387 341V340.664C152.387 340.347 152.415 340.085 152.471 339.88C152.527 339.665 152.635 339.409 152.793 339.11L156.699 332.11V331.984H150.637V331.2H157.623V332.222L153.535 339.558C153.433 339.745 153.358 339.917 153.311 340.076C153.274 340.225 153.255 340.421 153.255 340.664V341H152.387ZM158.752 341V340.034C158.752 339.334 158.878 338.783 159.13 338.382C159.382 337.971 159.732 337.645 160.18 337.402C160.638 337.159 161.174 336.945 161.79 336.758L162.49 336.534C162.948 336.394 163.349 336.226 163.694 336.03C164.049 335.825 164.324 335.563 164.52 335.246C164.716 334.929 164.814 334.527 164.814 334.042V333.986C164.814 333.305 164.576 332.768 164.1 332.376C163.634 331.984 163.036 331.788 162.308 331.788C161.534 331.788 160.899 331.998 160.404 332.418C159.91 332.829 159.662 333.459 159.662 334.308V334.49H158.822V334.308C158.822 333.599 158.972 333.001 159.27 332.516C159.569 332.021 159.98 331.648 160.502 331.396C161.034 331.135 161.636 331.004 162.308 331.004C162.98 331.004 163.568 331.13 164.072 331.382C164.586 331.625 164.982 331.97 165.262 332.418C165.542 332.857 165.682 333.37 165.682 333.958V334.084C165.682 334.719 165.556 335.241 165.304 335.652C165.062 336.053 164.716 336.385 164.268 336.646C163.82 336.898 163.293 337.122 162.686 337.318L161.986 337.528C161.482 337.687 161.053 337.855 160.698 338.032C160.353 338.2 160.087 338.429 159.9 338.718C159.714 338.998 159.62 339.39 159.62 339.894V340.216H165.598V341H158.752ZM170.015 341V331.732H169.833L167.691 335.372H166.711L169.189 331.2H170.883V341H170.015ZM179.396 341C179.032 341 178.757 340.907 178.57 340.72C178.393 340.533 178.304 340.272 178.304 339.936V334.952H176.12V334.196H178.304V331.648H179.144V334.196H181.524V334.952H179.144V339.824C179.144 340.104 179.284 340.244 179.564 340.244H181.16V341H179.396ZM186.261 341.196C185.57 341.196 184.964 341.051 184.441 340.762C183.928 340.463 183.526 340.053 183.237 339.53C182.957 338.998 182.817 338.382 182.817 337.682V337.514C182.817 336.814 182.957 336.203 183.237 335.68C183.526 335.148 183.928 334.737 184.441 334.448C184.964 334.149 185.57 334 186.261 334C186.952 334 187.554 334.149 188.067 334.448C188.59 334.737 188.991 335.148 189.271 335.68C189.56 336.203 189.705 336.814 189.705 337.514V337.682C189.705 338.382 189.56 338.998 189.271 339.53C188.991 340.053 188.59 340.463 188.067 340.762C187.554 341.051 186.952 341.196 186.261 341.196ZM186.261 340.44C187.064 340.44 187.698 340.188 188.165 339.684C188.632 339.171 188.865 338.494 188.865 337.654V337.542C188.865 336.702 188.632 336.03 188.165 335.526C187.698 335.013 187.064 334.756 186.261 334.756C185.468 334.756 184.833 335.013 184.357 335.526C183.89 336.03 183.657 336.702 183.657 337.542V337.654C183.657 338.494 183.89 339.171 184.357 339.684C184.833 340.188 185.468 340.44 186.261 340.44ZM191.835 341V331.2H192.675V337.108H192.843L196.329 334.196H197.561L193.529 337.514L197.673 341H196.455L192.843 337.934H192.675V341H191.835ZM201.998 341.196C201.298 341.196 200.687 341.051 200.164 340.762C199.651 340.463 199.249 340.048 198.96 339.516C198.671 338.984 198.526 338.373 198.526 337.682V337.514C198.526 336.814 198.671 336.203 198.96 335.68C199.249 335.148 199.646 334.737 200.15 334.448C200.663 334.149 201.247 334 201.9 334C202.535 334 203.095 334.135 203.58 334.406C204.075 334.667 204.462 335.05 204.742 335.554C205.022 336.049 205.162 336.641 205.162 337.332V337.78H199.366C199.394 338.629 199.651 339.287 200.136 339.754C200.631 340.211 201.251 340.44 201.998 340.44C202.633 340.44 203.123 340.295 203.468 340.006C203.823 339.717 204.093 339.362 204.28 338.942L205.036 339.278C204.896 339.586 204.7 339.889 204.448 340.188C204.205 340.477 203.888 340.72 203.496 340.916C203.104 341.103 202.605 341.196 201.998 341.196ZM199.38 337.052H204.308C204.271 336.315 204.033 335.75 203.594 335.358C203.155 334.957 202.591 334.756 201.9 334.756C201.219 334.756 200.654 334.957 200.206 335.358C199.758 335.75 199.483 336.315 199.38 337.052ZM207.229 341V334.196H208.041V335.456H208.209C208.377 335.092 208.652 334.77 209.035 334.49C209.418 334.201 209.973 334.056 210.701 334.056C211.196 334.056 211.648 334.159 212.059 334.364C212.47 334.569 212.796 334.882 213.039 335.302C213.291 335.713 213.417 336.231 213.417 336.856V341H212.577V336.912C212.577 336.165 212.39 335.629 212.017 335.302C211.644 334.975 211.144 334.812 210.519 334.812C209.819 334.812 209.236 335.045 208.769 335.512C208.302 335.969 208.069 336.665 208.069 337.598V341H207.229ZM218.503 341.196C217.682 341.196 216.977 341 216.389 340.608C215.811 340.216 215.456 339.567 215.325 338.662L216.151 338.508C216.226 339.003 216.375 339.395 216.599 339.684C216.833 339.964 217.113 340.165 217.439 340.286C217.775 340.407 218.13 340.468 218.503 340.468C219.063 340.468 219.511 340.356 219.847 340.132C220.193 339.899 220.365 339.581 220.365 339.18C220.365 338.769 220.202 338.485 219.875 338.326C219.558 338.167 219.133 338.041 218.601 337.948L217.957 337.836C217.528 337.761 217.141 337.649 216.795 337.5C216.45 337.341 216.175 337.131 215.969 336.87C215.773 336.609 215.675 336.282 215.675 335.89C215.675 335.302 215.904 334.84 216.361 334.504C216.828 334.168 217.444 334 218.209 334C218.984 334 219.605 334.177 220.071 334.532C220.547 334.877 220.846 335.381 220.967 336.044L220.183 336.212C220.09 335.671 219.866 335.288 219.511 335.064C219.166 334.84 218.732 334.728 218.209 334.728C217.696 334.728 217.285 334.826 216.977 335.022C216.669 335.218 216.515 335.507 216.515 335.89C216.515 336.263 216.655 336.539 216.935 336.716C217.215 336.884 217.598 337.01 218.083 337.094L218.727 337.206C219.194 337.281 219.614 337.393 219.987 337.542C220.361 337.682 220.655 337.883 220.869 338.144C221.093 338.405 221.205 338.751 221.205 339.18C221.205 339.824 220.963 340.323 220.477 340.678C219.992 341.023 219.334 341.196 218.503 341.196Z" fill="black" fill-opacity="0.6"/>
<rect x="12" y="12" width="231" height="231" rx="5" fill="white"/>
<rect x="12.5" y="12.5" width="230" height="230" rx="4.5" stroke="black" stroke-opacity="0.1"/>
<rect x="101.16" y="91.9255" width="58.6809" height="84" rx="4.5" fill="white" stroke="#E1E1E1"/>
<rect x="93.9255" y="86.5" width="73.1489" height="84" rx="4.5" fill="white" stroke="#E1E1E1"/>
<rect x="88.5" y="81.0745" width="84" height="84" rx="4.5" fill="white" stroke="#E1E1E1"/>
<path d="M171.626 163.124L137.185 128.683C133.493 124.991 127.507 124.991 123.815 128.683L89.3743 163.124" stroke="#E1E1E1"/>
<circle cx="109.702" cy="105.894" r="6.73404" fill="white" stroke="#E1E1E1"/>
<path d="M54.8958 282.184L60.5278 289H64.1278V277.528H60.4318V284.12L54.9278 277.528H51.1838V289H54.8958V282.184ZM69.9708 285.736H76.8028V282.6H69.9708V280.824H76.9148V277.528H66.2588V289H69.9708V285.736ZM85.9698 280.888H89.8098V277.528H78.3218V280.888H82.0338V289H85.9698V280.888ZM109.097 283.944H104.889C104.745 285.16 103.897 285.928 102.089 285.928C100.201 285.928 99.1132 285.08 99.1132 283.32V283.304C99.1132 281.48 100.265 280.632 102.169 280.632C103.817 280.632 104.697 281.368 104.873 282.456H109.065C108.809 280.072 107.545 278.568 105.545 277.8C104.537 277.432 103.433 277.24 102.153 277.24C99.3692 277.24 97.2092 278.216 96.0252 280.04C95.4172 280.968 95.1292 282.04 95.1292 283.32V283.352C95.1292 286.136 96.2492 287.864 98.3132 288.696C99.3372 289.096 100.569 289.32 101.977 289.32C106.265 289.32 108.777 287.496 109.097 283.944ZM116.395 289.304C119.211 289.304 121.019 288.456 121.963 287C122.411 286.264 122.651 285.432 122.651 284.44C122.651 282.408 121.659 280.888 119.787 280.056C118.843 279.656 117.755 279.448 116.443 279.448C113.867 279.448 111.979 280.312 110.971 281.816C110.475 282.568 110.219 283.432 110.219 284.44C110.219 286.456 111.003 287.912 112.827 288.712C113.723 289.112 114.923 289.304 116.395 289.304ZM116.427 286.296C114.891 286.296 114.123 285.688 114.123 284.44C114.123 283.096 114.907 282.424 116.443 282.424C118.011 282.424 118.763 283.096 118.763 284.44C118.763 285.64 118.059 286.296 116.427 286.296ZM124.162 289H128.018V276.76H124.162V289ZM129.893 289H133.749V276.76H129.893V289ZM147.658 286.04H143.546C143.242 286.44 142.746 286.68 141.546 286.68C139.962 286.68 139.194 286.232 138.954 285.304H147.738V284.392C147.738 282.44 146.874 280.92 145.05 280.088C144.154 279.656 143.002 279.448 141.594 279.448C138.682 279.448 136.826 280.408 135.882 281.976C135.434 282.776 135.194 283.608 135.194 284.6C135.194 285.944 135.562 287.096 136.506 287.96C137.45 288.824 138.97 289.304 141.306 289.304C144.842 289.304 146.858 288.36 147.658 286.04ZM141.546 282.104C142.938 282.104 143.674 282.472 143.914 283.432H139.018C139.322 282.568 140.106 282.104 141.546 282.104ZM161.531 284.84H157.467C157.291 285.784 156.651 286.296 155.211 286.296C153.675 286.296 152.907 285.688 152.907 284.44C152.907 283.096 153.691 282.424 155.227 282.424C156.603 282.424 157.275 282.904 157.467 283.864H161.531C161.259 281.144 159.067 279.448 155.227 279.448C152.651 279.448 150.763 280.312 149.755 281.816C149.259 282.568 149.003 283.432 149.003 284.44C149.003 286.456 149.787 287.912 151.611 288.712C152.507 289.112 153.707 289.304 155.179 289.304C159.275 289.304 161.355 287.56 161.531 284.84ZM171.443 289V285.88H169.843C168.819 285.88 168.339 285.752 168.147 285.224C168.067 284.968 168.019 284.568 168.019 284.056V282.872H171.443V279.72H168.019V277.16H165.059C165.043 277.688 165.011 278.36 164.835 278.824C164.643 279.352 164.419 279.608 163.859 279.752C163.427 279.864 162.883 279.896 162.259 279.912V282.872H164.419V284.408C164.419 286.616 164.867 287.912 166.147 288.536C166.787 288.856 167.683 289 168.835 289H171.443ZM175.068 279.096C176.588 279.096 177.324 278.616 177.324 277.416C177.324 276.168 176.524 275.736 175.068 275.736C173.612 275.736 172.828 276.168 172.828 277.416C172.828 278.664 173.468 279.096 175.068 279.096ZM173.068 279.752V289H177.02V279.752C176.876 279.88 176.364 279.976 175.804 280.04C175.532 280.056 175.292 280.072 175.052 280.072C174.62 280.072 173.996 280.008 173.532 279.928C173.292 279.88 173.132 279.816 173.068 279.752ZM184.686 289.304C187.502 289.304 189.31 288.456 190.254 287C190.702 286.264 190.942 285.432 190.942 284.44C190.942 282.408 189.95 280.888 188.078 280.056C187.134 279.656 186.046 279.448 184.734 279.448C182.158 279.448 180.27 280.312 179.262 281.816C178.766 282.568 178.51 283.432 178.51 284.44C178.51 286.456 179.294 287.912 181.118 288.712C182.014 289.112 183.214 289.304 184.686 289.304ZM184.718 286.296C183.182 286.296 182.414 285.688 182.414 284.44C182.414 283.096 183.198 282.424 184.734 282.424C186.302 282.424 187.054 283.096 187.054 284.44C187.054 285.64 186.35 286.296 184.718 286.296ZM196.324 289V285C196.324 283.352 196.884 282.632 198.324 282.632C199.716 282.632 200.164 283.336 200.164 284.792V289H204.004V283.688C204.004 281 202.548 279.448 199.86 279.448C197.908 279.448 196.692 280.392 196.116 281.8L195.748 279.72H192.452V289H196.324Z" fill="black"/>
<defs>
<linearGradient id="paint0_linear" x1="42.729" y1="83.6462" x2="272.413" y2="227.823" gradientUnits="userSpaceOnUse">
<stop stop-color="#BCEB00"/>
<stop offset="1" stop-color="#00EAEA"/>
</linearGradient>
<linearGradient id="paint1_linear" x1="38.3253" y1="71.43" x2="276.652" y2="224.64" gradientUnits="userSpaceOnUse">
<stop stop-color="#BCEB00"/>
<stop offset="1" stop-color="#00EAEA"/>
</linearGradient>
<linearGradient id="paint2_linear" x1="33.9216" y1="67.43" x2="276.829" y2="231.296" gradientUnits="userSpaceOnUse">
<stop stop-color="#BCEB00"/>
<stop offset="1" stop-color="#00EAEA"/>
</linearGradient>
</defs>
</svg>
