<svg width="56" height="56" viewBox="0 0 56 56" fill="none" xmlns="http://www.w3.org/2000/svg">
<mask id="mask0" mask-type="alpha" maskUnits="userSpaceOnUse" x="0" y="0" width="56" height="56">
<path fill-rule="evenodd" clip-rule="evenodd" d="M28 56C43.464 56 56 43.464 56 28C56 12.536 43.464 0 28 0C12.536 0 0 12.536 0 28C0 43.464 12.536 56 28 56ZM39.9636 22.8631C36.1923 22.9281 33.1364 19.8721 33.1364 16.1009C33.1364 14.9305 33.4615 13.7602 33.9816 12.7849C32.096 12.0696 30.0804 11.6795 27.9997 11.6795C18.9618 11.6795 11.6795 19.0269 11.6795 28.0648C11.6795 37.1026 19.0269 44.385 28.0648 44.32C37.1026 44.2549 44.385 36.9726 44.32 27.9347C44.32 25.854 43.9298 23.8384 43.2146 22.0178C42.2393 22.603 41.1339 22.8631 39.9636 22.8631ZM45.0377 16.0359C45.0377 18.8383 42.766 21.1101 39.9636 21.1101C37.1612 21.1101 34.8894 18.8383 34.8894 16.0359C34.8894 13.2335 37.1612 10.9618 39.9636 10.9618C42.766 10.9618 45.0377 13.2335 45.0377 16.0359Z" fill="#C4C4C4"/>
</mask>
<g mask="url(#mask0)">
<g filter="url(#filter0_f)">
<path d="M47.9098 28.147C47.9098 39.2134 38.9387 48.1844 27.8724 48.1844C16.806 48.1844 7.83496 39.2134 7.83496 28.147C7.83496 17.0807 16.806 8.10962 27.8724 8.10962C38.9387 8.10962 47.9098 17.0807 47.9098 28.147Z" fill="url(#paint0_linear)"/>
</g>
</g>
<defs>
<filter id="filter0_f" x="-0.935862" y="-0.661203" width="57.6165" height="57.6165" filterUnits="userSpaceOnUse" color-interpolation-filters="sRGB">
<feFlood flood-opacity="0" result="BackgroundImageFix"/>
<feBlend mode="normal" in="SourceGraphic" in2="BackgroundImageFix" result="shape"/>
<feGaussianBlur stdDeviation="4.38541" result="effect1_foregroundBlur"/>
</filter>
<linearGradient id="paint0_linear" x1="13.166" y1="15.2584" x2="40.9396" y2="43.0321" gradientUnits="userSpaceOnUse">
<stop stop-color="#BFEF00"/>
<stop offset="1" stop-color="#00EAEA"/>
</linearGradient>
</defs>
</svg>
